<svg version="1.1" id="Layer_1" xmlns="http://www.w3.org/2000/svg" xmlns:xlink="http://www.w3.org/1999/xlink" x="0px" y="0px"
	 width="100%" viewBox="0 0 816 304" enable-background="new 0 0 816 304" xml:space="preserve">
<path fill="#000000" opacity="1.000000" stroke="none" 
	d="
M286.373627,136.659363 
	C276.359100,130.594406 276.668060,123.858574 287.249237,112.091095 
	C287.519714,110.913963 286.729767,110.191551 286.017700,109.531830 
	C276.176453,100.413918 280.880432,83.776207 293.002411,78.466705 
	C300.237610,75.297623 307.508087,75.150063 314.990601,76.982651 
	C316.909180,77.452545 318.769440,78.252876 320.845123,77.958191 
	C322.457031,76.023270 322.575073,73.685577 322.847717,71.381355 
	C323.079376,69.423599 323.735687,67.697662 326.130341,67.772537 
	C328.210419,67.837578 330.809540,66.655312 332.203522,68.775063 
	C333.636810,70.954643 332.369659,73.384186 331.098114,75.309654 
	C329.832672,77.225891 328.080933,78.820992 326.625519,80.463150 
	C326.635132,82.558273 328.214325,83.489067 329.203491,84.764473 
	C336.204437,93.790985 333.714661,106.252769 323.720367,111.783943 
	C315.099823,116.554840 305.888794,116.940971 296.560120,114.746384 
	C292.324310,113.749901 289.512726,114.776054 288.461731,118.901604 
	C287.257446,123.628647 290.908630,124.502243 294.299164,125.101501 
	C301.407257,126.357803 308.593323,125.511520 315.742371,125.610825 
	C319.627533,125.664787 323.373779,126.194016 327.028259,127.406723 
	C338.791351,131.310196 342.723358,145.456665 334.761414,155.006134 
	C329.512482,161.301697 322.390411,164.107040 314.644257,164.959915 
	C305.522919,165.964172 296.332886,165.866425 287.469391,162.768173 
	C281.929138,160.831543 277.589813,157.617676 277.005341,151.324890 
	C276.475128,145.616425 279.771027,142.005951 284.509979,139.430634 
	C285.511200,138.886520 286.388824,138.114548 287.309692,137.429169 
	C287.319672,137.421738 287.166382,137.143692 287.050385,137.032562 
	C286.933441,136.920532 286.767975,136.859177 286.373627,136.659363 
M288.319427,154.924667 
	C293.287964,162.013062 300.958862,161.579178 308.161621,161.554321 
	C315.320526,161.529633 322.518402,160.577057 328.142120,155.312531 
	C331.143951,152.502441 332.413513,148.946213 331.307770,144.893112 
	C330.226044,140.928085 326.951660,139.793442 323.319397,139.212830 
	C315.038818,137.889267 306.773560,138.180893 298.490540,139.206451 
	C288.990875,140.382690 285.854919,144.811783 288.319427,154.924667 
M300.252167,110.319946 
	C305.066650,114.599983 312.703339,113.125153 315.483337,107.097290 
	C318.929382,99.625328 318.878235,91.873810 314.953064,84.499985 
	C313.105652,81.029434 309.869354,79.232780 305.851196,79.424019 
	C302.017365,79.606491 299.003479,81.557785 297.717377,85.105339 
	C294.649017,93.569229 294.084106,101.980972 300.252167,110.319946 
z"/>
<path fill="#000000" opacity="1.000000" stroke="none" 
	d="
M219.604187,59.421829 
	C216.293549,54.884308 206.336792,52.282043 201.888748,54.518372 
	C199.505753,55.716457 200.312622,57.997520 200.305786,59.850693 
	C200.237686,78.340897 200.258057,96.831436 200.256653,115.321877 
	C200.256317,119.652969 200.407501,123.989670 200.233810,128.313538 
	C200.069168,132.411957 200.023209,136.296021 204.946594,138.707062 
	C195.995499,140.419296 187.315506,140.200562 178.007019,138.816605 
	C186.530136,135.002274 183.691940,127.961784 183.746780,122.127159 
	C183.940887,101.473045 183.710205,80.814957 183.902298,60.160805 
	C183.943924,55.684814 182.754211,54.014351 178.028549,54.113495 
	C166.295715,54.359657 165.713608,54.518333 161.481857,65.737366 
	C160.249146,69.005486 159.255280,72.363007 158.104401,75.662964 
	C157.517899,77.344727 156.550461,78.761803 154.490112,78.343384 
	C152.469360,77.933014 152.715439,76.161324 152.774521,74.708458 
	C153.051697,67.894112 153.456802,61.084641 153.695526,54.269203 
	C153.826202,50.538582 156.383957,50.653431 158.957367,50.652580 
	C175.615204,50.647064 192.273026,50.646172 208.930862,50.640408 
	C214.594543,50.638451 220.259964,50.708820 225.921204,50.587292 
	C229.072433,50.519642 230.366516,51.748112 230.431793,54.975510 
	C230.559647,61.293972 231.077042,67.603668 231.298599,73.921707 
	C231.357697,75.606606 232.009338,77.947609 229.357651,78.355179 
	C226.720322,78.760544 226.123154,76.602242 225.481537,74.660065 
	C223.810791,69.602623 222.257065,64.499077 219.604187,59.421829 
z"/>
<path fill="#000000" opacity="1.000000" stroke="none" 
	d="
M175.791595,220.293976 
	C177.859268,221.684036 179.110916,220.368134 180.587219,219.209732 
	C190.217133,211.653564 201.430527,210.139359 213.131180,211.298172 
	C216.598495,211.641586 219.433151,212.010269 220.896667,208.111877 
	C221.059784,207.677414 221.462448,207.269699 221.855408,206.994171 
	C228.068451,202.637619 234.829620,198.992920 239.565872,192.726089 
	C237.865250,201.371124 225.431320,213.646072 215.230713,217.070236 
	C210.501740,218.657669 205.697037,220.391556 200.793503,221.020065 
	C183.219650,223.272675 170.633713,233.260162 159.842529,246.332718 
	C158.528214,247.924881 157.689117,250.109375 154.843781,250.746094 
	C155.252533,246.117340 157.575989,242.408981 159.272202,238.640305 
	C171.102280,212.356094 181.026581,185.300095 192.055099,158.694717 
	C193.312912,155.660324 193.011246,150.660583 198.220566,150.806137 
	C203.164795,150.944275 203.191666,155.639282 204.458511,158.806534 
	C209.774170,172.096466 214.720428,185.534744 220.085831,198.803925 
	C221.800644,203.044861 220.481827,204.749481 216.488312,206.002747 
	C206.865387,209.022614 206.914642,209.133743 203.473679,199.804733 
	C200.485168,191.702393 197.463058,183.612442 194.154251,174.705292 
	C187.307602,190.051376 181.397629,204.971664 175.791595,220.293976 
z"/>
<path fill="#000000" opacity="1.000000" stroke="none" 
	d="
M291.841736,206.007278 
	C291.837585,202.343338 291.890228,199.176254 291.811798,196.012421 
	C291.603638,187.615173 289.016571,184.461899 282.224030,184.207123 
	C274.331787,183.911133 267.753418,188.449356 267.529846,195.379837 
	C267.110992,208.362518 267.529236,221.370300 267.276611,234.361389 
	C267.200867,238.257812 271.973724,237.210342 272.557770,241.470978 
	C263.951263,240.944839 255.615295,242.370422 246.602615,240.548981 
	C255.372940,237.445465 252.529861,230.526215 252.652420,224.845306 
	C252.878784,214.352859 252.781754,203.852509 252.746582,193.355698 
	C252.729919,188.385345 254.326447,182.617569 246.858902,181.478317 
	C247.756058,178.645126 249.623093,178.964584 251.181335,178.898697 
	C254.176331,178.772079 257.204498,179.044083 260.171051,178.716965 
	C265.263428,178.155441 268.452576,179.379028 267.078400,186.680740 
	C272.153870,182.061371 276.850250,179.282822 282.535248,178.295059 
	C295.868805,175.978409 305.460022,182.584930 306.466675,196.026688 
	C307.298462,207.132919 306.940918,218.328339 307.106018,229.484299 
	C307.163696,233.381592 306.317535,237.531601 311.571991,240.701385 
	C304.775970,242.226730 299.203491,241.466415 293.725372,241.046509 
	C291.356506,240.864960 291.852417,238.260910 291.847290,236.496887 
	C291.818207,226.499878 291.836548,216.502716 291.841736,206.007278 
z"/>
<path fill="#000000" opacity="1.000000" stroke="none" 
	d="
M357.390747,234.726837 
	C354.471497,236.550430 351.876801,238.887131 348.911652,240.571838 
	C342.037231,244.477737 334.889465,244.595367 327.972412,240.692154 
	C321.863739,237.245087 320.289581,231.416641 320.581970,224.869476 
	C320.914856,217.414444 325.698120,213.104904 331.763214,210.171097 
	C338.373657,206.973541 345.509033,205.098602 352.738770,203.887558 
	C355.914276,203.355637 357.017029,201.865021 356.927002,198.913452 
	C356.840729,196.084564 356.926056,193.249588 356.807373,190.422684 
	C356.546631,184.211456 354.061859,181.420792 348.689178,181.159546 
	C342.800995,180.873230 339.281647,183.723816 338.330414,189.549850 
	C336.733917,199.327988 336.741638,199.243820 327.201721,198.366867 
	C323.916748,198.064896 322.915405,196.727829 323.459900,193.492783 
	C324.819611,185.413773 330.279572,180.019730 340.333191,178.172134 
	C346.217804,177.090683 352.279205,177.056152 358.166138,178.700150 
	C367.524994,181.313705 371.920898,186.896851 372.029266,196.901627 
	C372.128418,206.055511 371.744537,215.213699 371.731750,224.370193 
	C371.726501,228.122177 370.865753,232.702057 374.414825,234.986481 
	C378.155121,237.394012 379.774780,232.299667 382.502136,230.889542 
	C384.615723,234.745819 382.318573,238.987640 377.001312,241.528580 
	C368.710144,245.490646 360.824463,242.821548 357.390747,234.726837 
M356.756989,211.022064 
	C356.837433,208.331100 355.903839,206.749191 352.907684,207.714645 
	C349.917114,208.678329 346.814026,209.454575 344.021515,210.839676 
	C336.860626,214.391495 334.151825,225.133957 338.490692,231.912933 
	C340.661530,235.304611 343.832245,236.223434 347.569489,235.384384 
	C352.823059,234.204971 356.449890,229.826813 356.656067,224.346283 
	C356.811920,220.203384 356.738098,216.051849 356.756989,211.022064 
z"/>
<path fill="#000000" opacity="1.000000" stroke="none" 
	d="
M463.947021,210.836273 
	C457.358002,226.525635 452.457245,242.486923 445.059479,257.417816 
	C440.975861,265.659851 433.585297,268.859894 425.157990,266.521057 
	C423.556458,266.076569 421.312164,265.855072 421.374298,263.927582 
	C421.485138,260.488403 421.741730,256.721069 424.128601,254.080475 
	C425.558716,252.498398 427.440460,254.558380 429.009521,255.351166 
	C435.077209,258.416962 438.500427,257.034698 441.502594,251.151642 
	C445.393372,243.527145 445.745422,236.559509 441.409821,228.671112 
	C435.815186,218.491943 431.623810,207.550461 426.570618,197.061325 
	C423.682281,191.066010 422.057159,184.147720 414.708435,180.382446 
	C418.936127,177.853546 422.791107,178.946686 426.382172,178.876099 
	C435.535400,178.696243 435.501282,178.836685 439.030609,187.180679 
	C443.559204,197.887146 448.154022,208.565628 453.303223,220.620758 
	C457.239838,209.714844 460.703918,200.133026 464.155426,190.546677 
	C465.127625,187.846390 464.088959,185.691345 462.256287,183.759521 
	C461.273132,182.723160 459.622253,182.160049 459.776947,179.595642 
	C466.169769,178.554810 472.546844,178.126312 480.066071,180.098602 
	C470.096497,188.648239 468.611206,200.313370 463.947021,210.836273 
z"/>
<path fill="#000000" opacity="1.000000" stroke="none" 
	d="
M346.224884,93.482742 
	C356.004730,73.707497 379.036896,69.397163 392.484619,84.586235 
	C397.060608,89.754791 398.986176,96.020752 399.422455,102.885155 
	C399.638092,106.278526 398.309540,107.295753 395.148895,107.259438 
	C384.989594,107.142738 374.828552,107.148651 364.668243,107.164146 
	C358.134613,107.174110 358.067017,107.273811 359.016754,113.570824 
	C359.363495,115.869759 359.791718,118.159538 360.272095,120.434631 
	C361.898407,128.137543 366.316620,133.344971 374.121582,135.122437 
	C381.827057,136.877228 388.154510,134.460083 393.218475,128.348206 
	C394.523071,126.773643 395.410461,122.820793 398.034637,124.760735 
	C400.537292,126.610840 397.656525,129.206421 396.352814,131.147537 
	C389.362640,141.555237 378.686371,142.346664 367.843872,141.072571 
	C356.916199,139.788467 349.265869,133.474915 345.236847,123.047852 
	C341.425720,113.184959 342.310730,103.473572 346.224884,93.482742 
M366.096039,81.477997 
	C361.423401,85.243706 360.514771,90.776489 359.516113,96.131355 
	C358.248322,102.929039 358.976715,103.613861 365.809906,103.638580 
	C368.135284,103.646996 370.460693,103.643814 372.786102,103.645447 
	C384.508759,103.653641 385.980743,101.604355 382.589752,89.939034 
	C382.219696,88.666046 381.816071,87.386986 381.266174,86.184753 
	C378.232666,79.552261 373.394073,77.867332 366.096039,81.477997 
z"/>
<path fill="#000000" opacity="1.000000" stroke="none" 
	d="
M660.126953,224.068756 
	C656.184204,219.289993 650.603027,218.901398 645.588806,217.364639 
	C641.286682,216.046127 636.988281,214.807663 633.056519,212.544342 
	C625.683655,208.300186 622.258789,200.717575 624.130310,192.688553 
	C626.084167,184.306534 632.575256,178.355911 640.792053,177.785660 
	C643.918274,177.568695 647.187561,177.569290 650.219421,178.244171 
	C655.496948,179.418945 660.630432,183.372833 665.509766,177.534531 
	C667.912048,182.219406 668.405823,197.636978 666.544678,200.500046 
	C664.091614,200.186722 663.803711,197.822678 662.730286,196.286087 
	C660.065491,192.471588 657.837524,188.333740 654.201965,185.273590 
	C649.811829,181.578262 644.852783,180.244705 639.315796,181.998260 
	C635.927673,183.071289 633.568481,185.227554 633.118347,189.036041 
	C632.642700,193.060852 633.775940,196.307190 637.477051,198.294708 
	C640.560303,199.950424 643.794434,201.219757 647.213379,202.089264 
	C650.594055,202.949020 653.949219,203.977509 657.219360,205.191162 
	C668.169312,209.255081 672.764893,216.712158 671.146423,227.531647 
	C669.858582,236.140747 661.580688,242.631714 651.202759,243.293625 
	C646.437439,243.597549 641.778687,242.993744 637.643250,240.726883 
	C634.311890,238.900757 631.617615,238.413162 628.827759,241.402344 
	C628.033936,242.252930 626.842712,242.624298 624.983887,241.844101 
	C624.343384,234.229706 622.842163,226.363815 624.415771,218.225204 
	C627.710571,218.597733 628.069092,221.085526 629.074463,222.804337 
	C632.368530,228.436096 635.574280,234.077789 641.747131,237.176239 
	C645.406189,239.012909 649.080811,240.133102 653.258057,239.068039 
	C661.040894,237.083710 663.642883,231.821747 660.126953,224.068756 
z"/>
<path fill="#000000" opacity="1.000000" stroke="none" 
	d="
M507.924896,243.285126 
	C495.455414,242.625717 490.172546,236.898834 489.908600,223.719055 
	C489.705200,213.562714 489.919403,203.398697 489.844482,193.238846 
	C489.806274,188.058273 491.907318,181.608032 483.096405,181.627029 
	C483.340668,180.664932 483.392365,180.100327 483.499817,180.089493 
	C490.671722,179.367661 490.321899,173.890610 490.626434,168.844269 
	C490.706604,167.515182 490.695068,166.180450 490.720886,164.848190 
	C490.858124,157.751785 490.857635,157.751755 497.023895,157.691788 
	C504.332642,157.620697 504.332275,157.620697 504.342438,165.149887 
	C504.344238,166.482407 504.299835,167.817413 504.365295,169.146927 
	C504.511932,172.124741 503.508270,175.398285 504.961639,178.011917 
	C506.677856,181.098160 510.199463,178.808228 512.810730,179.546677 
	C513.624023,179.776688 514.424683,179.997849 514.693665,181.468140 
	C513.559387,183.877014 510.865845,183.917480 508.545044,184.205444 
	C505.413696,184.594009 504.324707,186.144043 504.348907,189.185974 
	C504.443024,201.011169 504.363708,212.837692 504.440643,224.663132 
	C504.451263,226.298630 504.906464,227.946838 505.277954,229.561050 
	C506.011322,232.747635 507.841797,234.995972 511.175842,235.591660 
	C514.488220,236.183472 516.908264,234.567459 518.997437,232.160568 
	C520.500244,230.429291 520.791077,227.858490 523.021729,226.413422 
	C525.802734,227.594727 524.793152,229.634857 524.020142,231.333374 
	C520.950073,238.079453 516.543701,243.180222 507.924896,243.285126 
z"/>
<path fill="#000000" opacity="1.000000" stroke="none" 
	d="
M392.834106,236.569427 
	C394.045868,234.379669 393.684875,232.345139 393.686707,230.372986 
	C393.707611,207.895874 393.621429,185.418335 393.747162,162.941940 
	C393.770782,158.721008 393.369141,155.291336 388.421906,154.328308 
	C387.961975,154.238800 387.644989,153.414948 387.089447,152.715195 
	C390.317535,150.019775 393.934784,151.013824 397.227203,150.926468 
	C410.202515,150.582077 408.218536,149.372894 408.279175,161.880219 
	C408.381683,183.024857 408.258453,204.170517 408.327606,225.315430 
	C408.345642,230.827255 406.204926,237.257477 414.390839,239.615021 
	C410.159302,242.647079 392.269440,242.453445 388.257416,239.803268 
	C388.911102,237.671371 391.399017,238.217270 392.834106,236.569427 
z"/>
<path fill="#000000" opacity="1.000000" stroke="none" 
	d="
M573.127563,236.955048 
	C557.512146,221.763153 558.190979,196.295868 574.281433,183.074448 
	C582.468018,176.347580 598.940247,175.505325 607.797424,181.352798 
	C612.317993,184.337250 614.183655,188.893143 615.117432,193.930420 
	C615.589233,196.475891 614.538635,198.150009 611.756531,198.380341 
	C611.424805,198.407806 611.091797,198.446686 610.765808,198.512238 
	C601.612549,200.352890 601.665405,200.347702 600.642761,191.107666 
	C600.171326,186.848572 599.219421,182.734116 594.229004,181.452499 
	C589.388184,180.209335 584.519592,182.120544 582.242126,187.301895 
	C576.205505,201.035553 575.398682,215.219543 582.247070,228.788040 
	C587.909241,240.006332 600.913696,240.746124 609.134644,231.158829 
	C610.325500,229.769989 610.867004,227.329575 613.764221,227.704987 
	C615.278687,229.913025 613.751099,231.780563 612.698303,233.456818 
	C608.873474,239.546570 603.054382,242.624756 596.072144,243.171082 
	C587.899536,243.810547 580.143311,242.272202 573.127563,236.955048 
z"/>
<path fill="#000000" opacity="1.000000" stroke="none" 
	d="
M415.004303,82.350311 
	C413.471039,80.626228 410.754486,81.018173 410.098145,77.686394 
	C416.289429,76.318352 422.502441,76.534485 428.665558,76.931610 
	C430.877502,77.074127 430.428589,79.397430 430.470581,80.999107 
	C430.569550,84.772377 429.800842,88.619873 431.434174,92.368858 
	C433.170074,91.455841 433.410400,89.665993 434.202057,88.279655 
	C436.989441,83.398544 440.626587,79.391869 445.679810,76.790298 
	C447.952515,75.620224 450.828857,74.328926 452.809357,75.623634 
	C457.098694,78.427719 454.392303,83.174850 454.809113,87.060127 
	C455.061707,89.414482 454.128937,91.337959 451.142944,91.193748 
	C448.123108,91.047913 445.183838,91.506317 442.296997,92.443756 
	C434.745361,94.895966 431.106476,99.645836 431.028473,107.561653 
	C430.962830,114.220787 431.095642,120.881645 431.084106,127.541641 
	C431.076813,131.744247 430.635284,136.098282 436.152283,137.567734 
	C433.151642,140.595596 414.963776,141.053635 409.954041,138.102554 
	C417.680176,135.574142 415.761536,129.403366 415.699188,124.064980 
	C415.537964,110.263802 416.224426,96.452560 415.004303,82.350311 
z"/>
<path fill="#000000" opacity="1.000000" stroke="none" 
	d="
M245.698349,93.069618 
	C245.687912,91.250862 245.565155,89.908508 245.690735,88.589790 
	C246.083893,84.460609 245.260880,81.280731 240.302124,80.900444 
	C239.669449,80.851921 239.066910,80.410393 237.689224,79.830605 
	C242.248734,76.533775 246.236267,77.886559 249.771790,77.354584 
	C260.356598,75.761909 260.372955,75.938438 260.358093,86.469421 
	C260.339539,99.618721 260.309814,112.768127 260.347748,125.917313 
	C260.361725,130.765793 258.958099,136.275726 266.145294,138.651840 
	C257.138580,140.493927 248.725082,140.271301 239.671509,138.928528 
	C248.657608,135.272537 245.416153,127.974449 245.609924,122.016640 
	C245.918152,112.539093 245.696945,103.044319 245.698349,93.069618 
z"/>
<path fill="#000000" opacity="1.000000" stroke="none" 
	d="
M537.090332,178.721649 
	C550.220154,178.587479 550.229187,178.587463 550.246216,191.271332 
	C550.261108,202.408493 550.116516,213.548080 550.312195,224.681854 
	C550.410156,230.253769 547.914124,236.760559 555.401428,240.686508 
	C546.594238,240.684235 538.247864,242.950104 529.251709,240.061768 
	C537.360168,238.488159 535.581665,232.750443 535.612488,227.965668 
	C535.682007,217.161407 535.683777,206.356323 535.638672,195.551880 
	C535.614197,189.688644 537.778992,182.802429 528.357788,181.217087 
	C531.029968,177.693893 534.064880,179.157059 537.090332,178.721649 
z"/>
<path fill="#000000" opacity="1.000000" stroke="none" 
	d="
M212.228790,222.109131 
	C216.544586,219.322342 220.828430,216.909378 225.362640,214.355392 
	C230.719360,222.721329 231.092194,233.304062 238.591980,240.748428 
	C229.959396,241.337524 221.499710,241.840195 212.559067,240.568665 
	C218.665100,236.697800 215.344833,232.345932 214.045425,228.171402 
	C213.452911,226.267883 212.814484,224.378677 212.228790,222.109131 
z"/>
<path fill="#000000" opacity="1.000000" stroke="none" 
	d="
M703.907043,185.900406 
	C704.933044,183.498123 705.749573,181.318649 706.731079,179.216187 
	C707.398804,177.785736 708.776245,177.695648 710.173279,177.842361 
	C711.939209,178.027786 712.229980,179.316864 712.253052,180.712051 
	C712.308167,184.041245 712.354553,187.372528 712.292419,190.700867 
	C712.263062,192.272415 712.668396,194.374512 710.106750,194.354950 
	C707.668945,194.336334 707.894592,192.339798 707.792053,190.705475 
	C707.740356,189.881912 707.783020,189.052414 707.783020,187.904587 
	C705.669250,190.085785 706.679565,194.640396 702.672729,194.461670 
	C699.766602,194.332077 700.084595,190.986282 698.866760,189.032104 
	C697.852478,189.563110 698.428955,190.449982 698.390503,191.115021 
	C698.290405,192.845764 698.281189,194.721313 695.896301,194.585983 
	C693.844482,194.469543 693.883362,192.671005 693.861389,191.180771 
	C693.812317,187.855179 693.846008,184.528351 693.846008,181.181625 
	C689.013794,180.837158 689.481689,184.106125 689.178833,187.265518 
	C688.940796,189.749939 691.069397,194.187973 687.113098,194.295044 
	C683.002075,194.406311 685.137146,189.919952 684.774414,187.460754 
	C684.417175,185.038544 685.154175,182.331970 681.839783,181.368271 
	C680.948730,181.109207 680.600342,180.293732 680.717529,179.380829 
	C680.874756,178.155548 681.768433,177.748398 682.845154,177.747849 
	C687.834351,177.745316 692.929504,177.162109 697.779724,177.994019 
	C701.784180,178.680893 700.545715,183.977585 702.931274,186.459839 
	C703.013245,186.545151 703.261292,186.536911 703.398743,186.484787 
	C703.542664,186.430237 703.646484,186.270004 703.907043,185.900406 
z"/>
<path fill="#000000" opacity="1.000000" stroke="none" 
	d="
M256.216400,73.460159 
	C250.118256,74.166481 245.848740,71.539688 244.851379,66.813911 
	C243.873474,62.180176 246.777496,57.682468 251.694458,56.215500 
	C255.927994,54.952423 260.448700,57.219185 262.178894,61.472618 
	C264.236572,66.530952 262.456238,70.311134 256.216400,73.460159 
z"/>
<path fill="#000000" opacity="1.000000" stroke="none" 
	d="
M535.063354,163.597290 
	C538.044617,157.662125 542.585876,155.791687 547.299438,158.209991 
	C551.800232,160.519150 553.574158,166.247742 551.151245,170.648788 
	C548.851562,174.826065 543.050110,176.473038 539.010742,173.961609 
	C535.301758,171.655609 534.322205,168.120956 535.063354,163.597290 
z"/>
</svg>